Coordinates
version=1
nRows=5
nColumns=63
inDegrees=yes

Units are S.I. units (second, meters, Newtons, ...)
If the header above contains a line with 'inDegrees', this indicates whether rotational values are in degrees (yes) or radians (no).

endheader
time	pelvis_tilt	pelvis_list	pelvis_rotation	pelvis_tx	pelvis_ty	pelvis_tz	hip_flexion_r	hip_adduction_r	hip_rotation_r	knee_angle_r	knee_angle_r_beta	ankle_angle_r	subtalar_angle_r	mtp_angle_r	hip_flexion_l	hip_adduction_l	hip_rotation_l	knee_angle_l	knee_angle_l_beta	ankle_angle_l	subtalar_angle_l	mtp_angle_l	L5_S1_Flex_Ext	L5_S1_Lat_Bending	L5_S1_axial_rotation	L4_L5_Flex_Ext	L4_L5_Lat_Bending	L4_L5_axial_rotation	L3_L4_Flex_Ext	L3_L4_Lat_Bending	L3_L4_axial_rotation	L2_L3_Flex_Ext	L2_L3_Lat_Bending	L2_L3_axial_rotation	L1_L2_Flex_Ext	L1_L2_Lat_Bending	L1_L2_axial_rotation	L1_T12_Flex_Ext	L1_T12_Lat_Bending	L1_T12_axial_rotation	Abs_r3	Abs_r2	Abs_r1	Abs_t1	Abs_t2	neck_flexion	neck_bending	neck_rotation	arm_flex_r	arm_add_r	arm_rot_r	elbow_flex_r	pro_sup_r	wrist_flex_r	wrist_dev_r	arm_flex_l	arm_add_l	arm_rot_l	elbow_flex_l	pro_sup_l	wrist_flex_l	wrist_dev_l
      2.01666667	     -4.32252135	      1.92887557	     88.03932073	      0.31221459	      0.90946312	      0.61114399	     -3.96826308	     -2.48308268	     11.06732940	      3.18530600	      0.05559408	     34.62952037	    -10.78159433	      0.00000000	      3.44582300	      2.71009224	      5.24289441	     15.38455412	      0.26851112	     37.61855923	    -10.03140889	      0.00000000	     -0.11652442	      0.25004246	     -0.13718443	     -0.21639750	      0.33255647	     -0.14575845	     -0.19143797	      0.60795324	     -0.14575845	     -0.13317576	      0.60795324	     -0.12003637	     -0.10820458	      0.50988659	     -0.11146235	     -0.06658205	      0.38731577	     -0.10288832	     -0.83232229	      2.82853034	     -0.76297863	      0.00000000	      0.00000000	     17.91196584	      1.05486070	      1.34373709	      8.86065189	    -11.15351274	    145.42305247	      6.45802772	      4.67593077	     -9.44151891	    -15.04834681	     -5.38335313	    -16.02284808	     36.79784319	     31.66040439	     87.96259822	     -7.11896834	      6.72673677
      2.03333333	     -3.93473828	      2.16752805	     87.90542881	      0.31089355	      0.90961823	      0.61045432	     -4.38005972	     -2.21292944	     12.84973740	      2.67661972	      0.04671583	     34.05231830	    -12.55192828	      0.00000000	      3.24658710	      2.45561581	      5.49581171	     15.65932375	      0.27330676	     37.70061596	    -10.67132002	      0.00000000	     -0.11453440	      0.28447199	     -0.15993446	     -0.21270183	      0.37834775	     -0.16993037	     -0.18816856	      0.69166521	     -0.16993037	     -0.13090136	      0.69166521	     -0.13994266	     -0.10635664	      0.58009529	     -0.12994675	     -0.06544495	      0.44064712	     -0.11995085	     -0.81810774	      3.21800409	     -0.88950751	      0.00000000	      0.00000000	     18.25010452	      0.86378449	      2.26230915	      8.96783354	    -11.61366547	    143.48298179	      7.30090963	      4.87504602	     -9.51240174	    -15.64919882	     -5.04230838	    -15.99090292	     38.95529675	     30.47022569	     87.91466104	     -7.14952591	      6.34732864
      2.05000000	     -3.75649884	      2.29443310	     87.71914578	      0.31017477	      0.90954370	      0.60946464	     -4.50458607	     -2.11105568	     12.95795723	      2.65978524	      0.04642201	     34.08216314	    -12.50241382	      0.00000000	      3.05887378	      2.33723084	      5.47596592	     15.73094766	      0.27455683	     37.77691316	    -10.73001085	      0.00000000	     -0.09138099	      0.27328048	     -0.19400474	     -0.16970364	      0.36346304	     -0.20613003	     -0.15012983	      0.66445416	     -0.20613003	     -0.10443934	      0.66445416	     -0.16975415	     -0.08485639	      0.55727355	     -0.15762885	     -0.05221510	      0.42331146	     -0.14550355	     -0.65272529	      3.09140344	     -1.07899615	      0.00000000	      0.00000000	     18.46482444	      0.79853209	      2.33137979	      8.87882920	    -11.59224892	    143.47985445	      7.43409478	      4.88443499	     -9.49691331	    -15.68045605	     -5.32872585	    -16.14910823	     39.04264969	     30.11058236	     87.92115561	     -7.09572221	      6.46207188
      2.06666667	     -3.31315753	      2.62043833	     87.31832766	      0.30884646	      0.90977280	      0.60889969	     -4.95736245	     -1.83618159	     13.54499194	      2.40947248	      0.04205323	     33.87193911	    -12.47170203	      0.00000000	      2.65792189	      2.02617368	      5.36457085	     15.77829119	      0.27538313	     38.09122485	    -11.12624045	      0.00000000	     -0.11684248	      0.31242645	     -0.26697306	     -0.21698816	      0.41552718	     -0.28365888	     -0.19196050	      0.75963367	     -0.28365888	     -0.13353927	      0.75963367	     -0.23360143	     -0.10849992	      0.63710001	     -0.21691561	     -0.06676379	      0.48394857	     -0.20022980	     -0.83459412	      3.53423047	     -1.48482408	      0.00000000	      0.00000000	     18.80454071	      0.33807767	      3.31275125	      9.50248383	    -12.01574787	    143.38058670	      8.54116921	      5.04711135	     -9.62199120	    -15.91702029	     -4.99453059	    -15.82404341	     39.90092366	     28.86647247	     87.73208629	     -5.91974829	      7.08263961
      2.08333333	     -3.12745310	      2.81777340	     86.87763237	      0.30827610	      0.90988617	      0.60781698	     -5.21786667	     -1.73958912	     14.64011339	      2.40465726	      0.04196919	     33.61431722	    -13.42235119	      0.00000000	      2.28092539	      1.95843535	      5.51043800	     15.64978808	      0.27314033	     38.06983434	    -11.72030743	      0.00000000	     -0.10370645	      0.30093233	     -0.22849836	     -0.19259324	      0.40024000	     -0.24277950	     -0.17037932	      0.73168687	     -0.24277950	     -0.11852610	      0.73168687	     -0.19993606	     -0.09630180	      0.61366121	     -0.18565491	     -0.05925786	      0.46614418	     -0.17137377	     -0.74076477	      3.40420671	     -1.27083931	      0.00000000	      0.00000000	     18.78836143	      0.03995658	      2.72138971	      9.38560134	    -12.06710686	    142.48489150	      8.98820621	      5.82144934	    -10.18527688	    -15.69942223	     -4.24009740	    -15.94546733	     42.49058776	     27.38398779	     87.18889242	     -4.43548531	      6.81120212
